<svg xmlns="http://www.w3.org/2000/svg" fill="none" viewBox="0 0 18 18"><g clip-path="url(#a)"><mask id="b" width="18" height="18" x="0" y="0" maskUnits="userSpaceOnUse" style="mask-type:luminance"><path fill="#fff" d="M0 0h18v18H0V0Z"/></mask><g mask="url(#b)"><path fill="url(#c)" d="M0 0h18v18H0V0Z"/><path fill="#f0f3fa" d="M11.612 5.2c-.984 0-1.753.743-2.45 1.688C8.205 5.666 7.406 5.2 6.448 5.2 4.496 5.2 3 7.749 3 10.447c0 1.688.814 2.753 2.178 2.753.981 0 1.687-.464 2.942-2.665l.883-1.565c.126.204.258.424.398.66l.589.993c1.146 1.924 1.784 2.577 2.942 2.577 1.329 0 2.068-1.08 2.068-2.802C15 7.573 13.47 5.2 11.612 5.2ZM7.163 9.94c-1.017 1.6-1.37 1.958-1.936 1.958-.583 0-.93-.514-.93-1.43 0-1.958.974-3.96 2.134-3.96.629 0 1.154.363 1.958 1.518-.413.635-.822 1.273-1.226 1.914Zm3.84-.202-.704-1.177c-.177-.29-.36-.576-.548-.858.634-.981 1.157-1.471 1.779-1.471 1.292 0 2.326 1.909 2.326 4.254 0 .893-.292 1.412-.896 1.412-.58 0-.857-.384-1.957-2.16Z"/><path fill="url(#d)" fill-rule="evenodd" d="m9 8.975-.61-.948c-.409.63-.809 1.253-1.003 1.56l.81.81L9 8.975Z" clip-rule="evenodd"/><path fill="url(#e)" fill-rule="evenodd" d="M10.904 6.412c-.405.222-.845.82-1.155 1.293l-.586-.818c.44-.599.906-1.108 1.43-1.405l.311.93Z" clip-rule="evenodd"/></g></g><defs><linearGradient id="c" x1="9.281" x2="9.281" y1="16" y2="-.149" gradientUnits="userSpaceOnUse"><stop stop-color="#0869E1"/><stop offset="1" stop-color="#0081FA"/></linearGradient><linearGradient id="d" x1="8.719" x2="7.757" y1="8.561" y2="9.888" gradientUnits="userSpaceOnUse"><stop stop-opacity=".15"/><stop offset="1" stop-opacity="0"/></linearGradient><linearGradient id="e" x1="9.489" x2="10.592" y1="7.168" y2="6.089" gradientUnits="userSpaceOnUse"><stop stop-opacity=".1"/><stop offset="1" stop-opacity="0"/></linearGradient><clipPath id="a"><rect width="18" height="18" fill="#fff" rx="4"/></clipPath></defs></svg>
